<svg width="28" height="27" viewBox="0 0 28 27" fill="none" xmlns="http://www.w3.org/2000/svg">
<path fill-rule="evenodd" clip-rule="evenodd" d="M0.00633211 12.8412C0.0648548 12.1063 0.522948 11.4632 1.19838 11.1677L25.1984 0.667695C25.9224 0.350924 26.7651 0.490228 27.3487 1.02316C27.9323 1.5561 28.1473 2.38271 27.8974 3.13246L20.8974 24.1325C20.6906 24.7528 20.1936 25.2329 19.5665 25.4181C18.9393 25.6033 18.2613 25.4702 17.7506 25.0617L14.1485 22.18L10.4142 25.9142C9.84224 26.4862 8.982 26.6573 8.23465 26.3478C7.4873 26.0382 7.00002 25.3089 7.00002 24.5V18.5919L0.918506 14.6824C0.298348 14.2837 -0.0521906 13.5762 0.00633211 12.8412ZM5.5 13L10.5 16L20.5 6.5L5.5 13Z" fill="white"/>
</svg>
