<svg width="16" height="16" viewBox="0 0 16 16" fill="none" xmlns="http://www.w3.org/2000/svg">
<path d="M10.0671 0.869982C9.79788 0.594522 9.47637 0.375642 9.1214 0.226205C8.76644 0.076767 8.38519 -0.000213623 8.00005 -0.000213623C7.61491 -0.000213623 7.23366 0.076767 6.8787 0.226205C6.52373 0.375642 6.20222 0.594522 5.93305 0.869982L5.31105 1.50798L4.42105 1.49698C4.0358 1.49242 3.65353 1.56494 3.29671 1.71027C2.9399 1.8556 2.61574 2.07081 2.34331 2.34324C2.07088 2.61567 1.85567 2.93983 1.71034 3.29664C1.56501 3.65346 1.49249 4.03573 1.49705 4.42098L1.50705 5.31098L0.87105 5.93298C0.59559 6.20215 0.37671 6.52367 0.227273 6.87863C0.0778352 7.23359 0.000854492 7.61484 0.000854492 7.99998C0.000854492 8.38512 0.0778352 8.76637 0.227273 9.12134C0.37671 9.4763 0.59559 9.79781 0.87105 10.067L1.50805 10.689L1.49705 11.579C1.49249 11.9642 1.56501 12.3465 1.71034 12.7033C1.85567 13.0601 2.07088 13.3843 2.34331 13.6567C2.61574 13.9292 2.9399 14.1444 3.29671 14.2897C3.65353 14.435 4.0358 14.5075 4.42105 14.503L5.31105 14.493L5.93305 15.129C6.20222 15.4044 6.52373 15.6233 6.8787 15.7728C7.23366 15.9222 7.61491 15.9992 8.00005 15.9992C8.38519 15.9992 8.76644 15.9222 9.1214 15.7728C9.47637 15.6233 9.79788 15.4044 10.0671 15.129L10.6891 14.492L11.5791 14.503C11.9643 14.5075 12.3466 14.435 12.7034 14.2897C13.0602 14.1444 13.3844 13.9292 13.6568 13.6567C13.9292 13.3843 14.1444 13.0601 14.2898 12.7033C14.4351 12.3465 14.5076 11.9642 14.5031 11.579L14.4931 10.689L15.1291 10.067C15.4045 9.79781 15.6234 9.4763 15.7728 9.12134C15.9223 8.76637 15.9992 8.38512 15.9992 7.99998C15.9992 7.61484 15.9223 7.23359 15.7728 6.87863C15.6234 6.52367 15.4045 6.20215 15.1291 5.93298L14.4921 5.31098L14.5031 4.42098C14.5076 4.03573 14.4351 3.65346 14.2898 3.29664C14.1444 2.93983 13.9292 2.61567 13.6568 2.34324C13.3844 2.07081 13.0602 1.8556 12.7034 1.71027C12.3466 1.56494 11.9643 1.49242 11.5791 1.49698L10.6891 1.50698L10.0671 0.870982V0.869982ZM10.3541 6.85398L7.35405 9.85398C7.3076 9.90055 7.25243 9.93749 7.19168 9.96269C7.13094 9.9879 7.06582 10.0009 7.00005 10.0009C6.93428 10.0009 6.86916 9.9879 6.80842 9.96269C6.74767 9.93749 6.6925 9.90055 6.64605 9.85398L5.14605 8.35398C5.09956 8.30749 5.06269 8.2523 5.03753 8.19157C5.01237 8.13083 4.99942 8.06573 4.99942 7.99998C4.99942 7.93424 5.01237 7.86914 5.03753 7.8084C5.06269 7.74766 5.09956 7.69247 5.14605 7.64598C5.19254 7.59949 5.24773 7.56262 5.30847 7.53746C5.36921 7.5123 5.43431 7.49935 5.50005 7.49935C5.56579 7.49935 5.63089 7.5123 5.69163 7.53746C5.75237 7.56262 5.80756 7.59949 5.85405 7.64598L7.00005 8.79298L9.64605 6.14598C9.73994 6.0521 9.86728 5.99935 10.0001 5.99935C10.1328 5.99935 10.2602 6.0521 10.3541 6.14598C10.4479 6.23987 10.5007 6.36721 10.5007 6.49998C10.5007 6.63276 10.4479 6.7601 10.3541 6.85398V6.85398Z" fill="#3DA68B"/>
</svg>
